<svg width="62" height="51" viewBox="0 0 62 51" fill="none" xmlns="http://www.w3.org/2000/svg">
<path d="M55.582 13.1562C55.6628 13.4792 55.7031 14.0039 55.7031 14.7305C55.7031 19.0091 54.8958 23.2878 53.2812 27.5664C51.6667 31.7643 49.3659 35.6393 46.3789 39.1914C43.4727 42.6628 39.6784 45.4883 34.9961 47.668C30.3138 49.8477 25.1471 50.9375 19.4961 50.9375C12.3919 50.9375 5.89323 49.0404 0 45.2461C0.888021 45.3268 1.89714 45.3672 3.02734 45.3672C8.92057 45.3672 14.2083 43.5508 18.8906 39.918C16.0651 39.918 13.5625 39.1107 11.3828 37.4961C9.28385 35.8008 7.83073 33.7018 7.02344 31.1992C7.83073 31.2799 8.59766 31.3203 9.32422 31.3203C10.4544 31.3203 11.5846 31.1992 12.7148 30.957C10.7773 30.5534 9.04167 29.7461 7.50781 28.5352C5.97396 27.3242 4.76302 25.8711 3.875 24.1758C2.98698 22.3997 2.54297 20.5026 2.54297 18.4844V18.2422C4.31901 19.2917 6.21615 19.8568 8.23438 19.9375C4.4401 17.3542 2.54297 13.8021 2.54297 9.28125C2.54297 7.02083 3.14844 4.88151 4.35938 2.86328C7.50781 6.81901 11.3424 9.96745 15.8633 12.3086C20.4648 14.6497 25.349 15.9414 30.5156 16.1836C30.3542 15.2148 30.2734 14.2461 30.2734 13.2773C30.2734 9.80599 31.4844 6.81901 33.9062 4.31641C36.4089 1.8138 39.3958 0.5625 42.8672 0.5625C46.5807 0.5625 49.6888 1.89453 52.1914 4.55859C55.0977 3.99349 57.8021 2.98438 60.3047 1.53125C59.3359 4.51823 57.4792 6.85938 54.7344 8.55469C57.1562 8.23177 59.5781 7.54557 62 6.49609C60.224 9.07943 58.0846 11.2995 55.582 13.1562Z" fill="#00ACED"/>
</svg>
