<svg width="62" height="61" viewBox="0 0 62 61" fill="none" xmlns="http://www.w3.org/2000/svg">
<path d="M9.6875 9.55859C15.5807 3.66536 22.6849 0.71875 31 0.71875C39.3151 0.71875 46.3789 3.66536 52.1914 9.55859C58.0846 15.3711 61.0312 22.4349 61.0312 30.75C61.0312 39.0651 58.0846 46.1693 52.1914 52.0625C46.3789 57.875 39.3151 60.7812 31 60.7812C22.6849 60.7812 15.5807 57.875 9.6875 52.0625C3.875 46.1693 0.96875 39.0651 0.96875 30.75C0.96875 22.4349 3.875 15.3711 9.6875 9.55859ZM50.8594 14.5234C50.375 15.1693 49.7292 15.8958 48.9219 16.7031C48.1953 17.5104 46.6615 18.7617 44.3203 20.457C41.9792 22.1523 39.3958 23.5651 36.5703 24.6953C37.2969 26.3099 38.0234 28.0052 38.75 29.7812C44.6432 28.974 50.6172 29.2161 56.6719 30.5078C56.5911 24.5339 54.6536 19.2057 50.8594 14.5234ZM47.9531 11.6172C44.8047 8.79167 41.2122 6.89453 37.1758 5.92578C33.1393 4.8763 29.0625 4.83594 24.9453 5.80469C28.4167 10.4062 31.6055 15.4115 34.5117 20.8203C37.2565 19.8516 39.7188 18.6003 41.8984 17.0664C44.1589 15.5326 45.612 14.4023 46.2578 13.6758C46.9844 12.8685 47.5495 12.1823 47.9531 11.6172ZM20.1016 7.62109C17.6797 8.7513 15.5 10.2044 13.5625 11.9805C11.625 13.7565 9.97005 15.8151 8.59766 18.1562C7.30599 20.4167 6.41797 22.8789 5.93359 25.543C13.5221 25.6237 21.3932 24.5742 29.5469 22.3945C26.6406 17.1471 23.4922 12.2227 20.1016 7.62109ZM5.32812 30.75C5.32812 37.3698 7.54818 43.1016 11.9883 47.9453C13.3607 45.5234 15.1367 43.1823 17.3164 40.9219C19.4961 38.6615 22.0391 36.6029 24.9453 34.7461C27.8516 32.8893 30.7982 31.5573 33.7852 30.75C33.2201 29.2969 32.5339 27.8438 31.7266 26.3906C23.0078 28.974 14.2083 30.1849 5.32812 30.0234C5.32812 30.2656 5.32812 30.5078 5.32812 30.75ZM15.2578 50.9727C18.9714 53.9596 23.1693 55.7357 27.8516 56.3008C32.5339 56.8659 36.9336 56.2201 41.0508 54.3633C40.0013 48.1471 38.1849 41.6888 35.6016 34.9883C30.6771 36.6029 26.3984 38.944 22.7656 42.0117C19.2135 44.9987 16.7109 47.9857 15.2578 50.9727ZM45.2891 52.0625C51.5052 47.8646 55.1784 42.1328 56.3086 34.8672C51.2227 33.2526 45.8945 32.8893 40.3242 33.7773C42.6654 40.2357 44.3203 46.3307 45.2891 52.0625Z" fill="white"/>
</svg>
