<svg width="34" height="63" viewBox="0 0 34 63" fill="none" xmlns="http://www.w3.org/2000/svg">
<path d="M31.7852 35.625H22.7031V62.75H10.5938V35.625H0.785156V24.3633H10.5938V15.8867C10.5938 12.6576 11.1992 9.91276 12.4102 7.65234C13.6211 5.39193 15.3164 3.69661 17.4961 2.56641C19.7565 1.35547 22.3398 0.75 25.2461 0.75C26.5378 0.75 27.9102 0.830729 29.3633 0.992188C30.8164 1.07292 31.9466 1.19401 32.7539 1.35547L33.9648 1.47656V11.043H29.1211C26.8607 11.043 25.2057 11.6484 24.1562 12.8594C23.1875 13.9896 22.7031 15.4023 22.7031 17.0977V24.3633H33.4805L31.7852 35.625Z" fill="#3B5998"/>
</svg>
